<svg width="80" height="80" viewBox="0 0 80 80" fill="none" xmlns="http://www.w3.org/2000/svg">
  <mask id="mask0" style="mask-type:alpha" maskUnits="userSpaceOnUse" x="13" y="8" width="55" height="64">
    <path
      d="M41.5808 8.96024C40.922 8.52123 40.0641 8.52123 39.4055 8.96024C31.8056 14.0268 23.5865 17.1881 14.7285 18.4535C13.7626 18.5915 13.0452 19.4187 13.0452 20.3944V38.0394C13.0452 53.2977 22.0912 64.4313 39.7893 71.2384C40.2423 71.4125 40.744 71.4125 41.1969 71.2384C58.8949 64.4313 67.9409 53.2977 67.9409 38.0394V20.3944C67.9409 19.4187 67.2234 18.5915 66.2576 18.4535C57.3998 17.1881 49.1803 14.0268 41.5808 8.96024ZM46.3747 36.0789C46.3747 38.6398 44.7381 40.8183 42.4536 41.6257V49.8028C42.4536 50.8854 41.5757 51.7634 40.4931 51.7634C39.4103 51.7634 38.5325 50.8854 38.5325 49.8028V41.6257C36.248 40.8183 34.6114 38.6398 34.6114 36.0789C34.6114 32.8305 37.2447 30.1972 40.4931 30.1972C43.7413 30.1972 46.3747 32.8305 46.3747 36.0789Z"
      fill="#3CB179" />
  </mask>
  <g mask="url(#mask0)">
    <path
      d="M41.5808 8.96024C40.922 8.52123 40.0641 8.52123 39.4055 8.96024C31.8056 14.0268 23.5865 17.1881 14.7285 18.4535C13.7626 18.5915 13.0452 19.4187 13.0452 20.3944V38.0394C13.0452 53.2977 22.0912 64.4313 39.7893 71.2384C40.2423 71.4125 40.744 71.4125 41.1969 71.2384C58.8949 64.4313 67.9409 53.2977 67.9409 38.0394V20.3944C67.9409 19.4187 67.2234 18.5915 66.2576 18.4535C57.3998 17.1881 49.1803 14.0268 41.5808 8.96024ZM46.3747 36.0789C46.3747 38.6398 44.7381 40.8183 42.4536 41.6257V49.8028C42.4536 50.8854 41.5757 51.7634 40.4931 51.7634C39.4103 51.7634 38.5325 50.8854 38.5325 49.8028V41.6257C36.248 40.8183 34.6114 38.6398 34.6114 36.0789C34.6114 32.8305 37.2447 30.1972 40.4931 30.1972C43.7413 30.1972 46.3747 32.8305 46.3747 36.0789Z"
      fill="#3CB179" />
    <path d="M40.5 8H68V72H40.5V8Z" fill="#30A46C" />
  </g>
</svg>
